<?xml version="1.0" encoding="UTF-8"?>
<svg width="32px" height="32px" viewBox="0 0 32 32" version="1.1" xmlns="http://www.w3.org/2000/svg" xmlns:xlink="http://www.w3.org/1999/xlink">
    <!-- Generator: Sketch 60.1 (88133) - https://sketch.com -->
    <title>Home</title>
    <desc>Created with Sketch.</desc>
    <g id="Home" stroke="none" stroke-width="1" fill="none" fill-rule="evenodd">
        <path d="M9.42408024,15.0909091 L9.42408024,24.1818182 L23.5759202,24.1818182 L23.5759202,15.0909091 L9.42408024,15.0909091 Z M8.98183524,13.2727273 L24.0181652,13.2727273 C24.7509007,13.2727273 25.3449002,13.8832481 25.3449002,14.6363636 L25.3449002,24.6363636 C25.3449002,25.3894792 24.7509007,26 24.0181652,26 L8.98183524,26 C8.24909973,26 7.65510024,25.3894792 7.65510024,24.6363636 L7.65510024,14.6363636 C7.65510024,13.8832481 8.24909973,13.2727273 8.98183524,13.2727273 Z M16.3739043,17.0008452 C17,17.0092975 17,17.1022727 17,18.125 L17,26 L12,26 L12.0006261,17.8452292 C12.006261,17.0845229 12.0626096,17.0084523 12.6260957,17.0008452 L16.3739043,17.0008452 Z M14.5,18.5 C13.9477153,18.5 13.5,18.9477153 13.5,19.5 C13.5,20.0522847 13.9477153,20.5 14.5,20.5 C15.0522847,20.5 15.5,20.0522847 15.5,19.5 C15.5,18.9477153 15.0522847,18.5 14.5,18.5 Z M16.9875358,6.15108973 L27.6044112,13.3510897 C28.332669,13.8449691 27.9890612,15 27.1138802,15 L5.88612024,15 C5.01105835,15 4.66736533,13.845225 5.39539759,13.3512198 L16.0062823,6.15121978 C16.3033561,5.94964074 16.6904104,5.94958944 16.9875358,6.15108973 Z M16.4971434,7.98166539 L8.80670633,13.2 L24.1919223,13.2 L16.4971434,7.98166539 Z" id="Combined-Shape" fill="#000000" fill-rule="nonzero"></path>
    </g>
</svg>