<?xml version="1.0" encoding="UTF-8"?>
<svg width="40px" height="42px" viewBox="0 0 40 42" version="1.1" xmlns="http://www.w3.org/2000/svg" xmlns:xlink="http://www.w3.org/1999/xlink">
    <!-- Generator: Sketch 60.1 (88133) - https://sketch.com -->
    <title>Search</title>
    <desc>Created with Sketch.</desc>
    <g id="Page-1" stroke="none" stroke-width="1" fill="none" fill-rule="evenodd">
        <g id="250-icons-48x48px" transform="translate(-83.000000, -295.000000)" fill="#000000">
            <g id="Search" transform="translate(83.000000, 295.000000)">
                <path d="M39.03,38.59 L29.79,29.4 C36.2642892,22.8856708 36.4615706,12.4286017 30.2375977,5.67470899 C24.0136248,-1.07918368 13.5752835,-1.73511574 6.55479706,4.18651198 C-0.465689408,10.1081397 -1.57900857,20.5076462 4.0288674,27.7812033 C9.63674337,35.0547603 19.9773831,36.623322 27.49,31.34 L36.91,40.76 C37.5010195,41.3107177 38.4220194,41.2944678 38.9932436,40.7232436 C39.5644678,40.1520194 39.5807177,39.2310195 39.03,38.64 L39.03,38.59 Z M3.72,17.4 C3.72,9.6680135 9.9880135,3.4 17.72,3.4 C25.4519865,3.4 31.72,9.6680135 31.72,17.4 C31.72,25.1319865 25.4519865,31.4 17.72,31.4 C9.9880135,31.4 3.72,25.1319865 3.72,17.4 Z" id="Shape"></path>
            </g>
        </g>
    </g>
</svg>